<svg preserveAspectRatio="none" width="100%" height="100%" overflow="visible" style="display: block;" viewBox="0 0 24 24" fill="none" xmlns="http://www.w3.org/2000/svg">
<g id="person">
<mask id="mask0_0_9" style="mask-type:alpha" maskUnits="userSpaceOnUse" x="0" y="0" width="24" height="24">
<rect id="Bounding box" width="24" height="24" fill="var(--fill-0, #D9D9D9)"/>
</mask>
<g mask="url(#mask0_0_9)">
<path id="person_2" d="M8.99185 10.5917C8.19735 9.7972 7.8001 8.79437 7.8001 7.5832C7.8001 6.3722 8.19735 5.36945 8.99185 4.57495C9.78618 3.78045 10.7889 3.3832 12.0001 3.3832C13.2113 3.3832 14.214 3.78045 15.0083 4.57495C15.8028 5.36945 16.2001 6.3722 16.2001 7.5832C16.2001 8.79437 15.8028 9.7972 15.0083 10.5917C14.214 11.386 13.2113 11.7832 12.0001 11.7832C10.7889 11.7832 9.78618 11.386 8.99185 10.5917ZM3.5001 18.9082V18C3.5001 17.3166 3.66535 16.7194 3.99585 16.2082C4.32651 15.6972 4.76126 15.3111 5.3001 15.05C6.43343 14.5055 7.55285 14.0999 8.65835 13.8332C9.76401 13.5665 10.8779 13.4332 12.0001 13.4332C13.1223 13.4332 14.2333 13.5694 15.3333 13.8417C16.4333 14.1139 17.55 14.5166 18.6833 15.05C19.2333 15.3111 19.6737 15.6972 20.0043 16.2082C20.3348 16.7194 20.5001 17.3166 20.5001 18V18.9082C20.5001 19.5027 20.2987 20.0014 19.8958 20.4042C19.4932 20.8069 18.9946 21.0082 18.4001 21.0082H5.6001C5.0056 21.0082 4.50701 20.8069 4.10435 20.4042C3.70151 20.0014 3.5001 19.5027 3.5001 18.9082Z" fill="var(--fill-0, #B9B3E9)"/>
</g>
</g>
</svg>
