<svg preserveAspectRatio="none" width="100%" height="100%" overflow="visible" style="display: block;" viewBox="0 0 24 24" fill="none" xmlns="http://www.w3.org/2000/svg">
<g id="repeat">
<mask id="mask0_0_12" style="mask-type:alpha" maskUnits="userSpaceOnUse" x="0" y="0" width="24" height="24">
<rect id="Bounding box" width="24" height="24" fill="var(--fill-0, #D9D9D9)"/>
</mask>
<g mask="url(#mask0_0_12)">
<path id="repeat_2" d="M6.5167 19.2669L7.54995 20.3001C7.76112 20.5113 7.8667 20.7599 7.8667 21.0459C7.8667 21.332 7.7597 21.5758 7.5457 21.7771C7.3347 21.9896 7.08262 22.0979 6.78945 22.1021C6.49645 22.1063 6.24995 22.0029 6.04995 21.7919L3.2082 18.9501C3.0972 18.8501 3.01803 18.7383 2.9707 18.6146C2.92353 18.4909 2.89995 18.3576 2.89995 18.2146C2.89995 18.0716 2.92353 17.939 2.9707 17.8169C3.01803 17.6945 3.0972 17.5834 3.2082 17.4834L6.04995 14.6419C6.25062 14.4307 6.49803 14.3279 6.7922 14.3334C7.0862 14.339 7.33878 14.4419 7.54995 14.6419C7.76378 14.8529 7.86587 15.1056 7.8562 15.4001C7.84653 15.6946 7.7417 15.9419 7.5417 16.1419L6.5167 17.1669H17.4332V14.1669C17.4332 13.8807 17.5356 13.6328 17.7405 13.4231C17.9451 13.2133 18.1937 13.1084 18.4862 13.1084C18.7787 13.1084 19.0264 13.2133 19.2292 13.4231C19.4319 13.6328 19.5332 13.8807 19.5332 14.1669V17.1669C19.5332 17.7585 19.3311 18.2564 18.927 18.6606C18.5228 19.0648 18.0249 19.2669 17.4332 19.2669H6.5167ZM17.5082 6.84186H6.5667V9.84185C6.5667 10.139 6.46428 10.3897 6.25945 10.5939C6.05478 10.798 5.8062 10.9001 5.5137 10.9001C5.2212 10.9001 4.97353 10.798 4.7707 10.5939C4.56803 10.3897 4.4667 10.139 4.4667 9.84185V6.84186C4.4667 6.26119 4.66878 5.76602 5.07295 5.35636C5.47712 4.94669 5.97504 4.74186 6.5667 4.74186H17.5082L16.475 3.70836C16.2638 3.50836 16.1582 3.26536 16.1582 2.97936C16.1582 2.69319 16.2652 2.44386 16.4792 2.23136C16.6792 2.01902 16.9257 1.91352 17.2187 1.91486C17.5117 1.91619 17.7638 2.01686 17.975 2.21686L20.8167 5.05836C20.9167 5.16952 20.993 5.28419 21.0457 5.40236C21.0985 5.52052 21.125 5.65386 21.125 5.80236C21.125 5.95086 21.0985 6.08344 21.0457 6.20011C20.993 6.31677 20.9167 6.42511 20.8167 6.52511L17.975 9.36685C17.7631 9.57785 17.5101 9.68336 17.216 9.68336C16.922 9.68336 16.675 9.57785 16.475 9.36685C16.2611 9.15569 16.1563 8.90569 16.1605 8.61685C16.1646 8.32785 16.2722 8.07785 16.4832 7.86685L17.5082 6.84186Z" fill="var(--fill-0, #B9B3E9)"/>
</g>
</g>
</svg>
