<svg preserveAspectRatio="none" width="100%" height="100%" overflow="visible" style="display: block;" viewBox="0 0 24 24" fill="none" xmlns="http://www.w3.org/2000/svg">
<g id="material-symbols:arrow-outward-rounded">
<path id="Vector" d="M16 8.4L7.125 17.3C6.925 17.5 6.68733 17.6 6.412 17.6C6.13733 17.6 5.9 17.5 5.7 17.3C5.5 17.1 5.4 16.8623 5.4 16.587C5.4 16.3123 5.5 16.075 5.7 15.875L14.6 7H7C6.71667 7 6.479 6.90433 6.287 6.713C6.09567 6.521 6 6.28333 6 6C6 5.71667 6.09567 5.479 6.287 5.287C6.479 5.09567 6.71667 5 7 5H17C17.2833 5 17.5207 5.09567 17.712 5.287C17.904 5.479 18 5.71667 18 6V16C18 16.2833 17.904 16.5207 17.712 16.712C17.5207 16.904 17.2833 17 17 17C16.7167 17 16.4793 16.904 16.288 16.712C16.096 16.5207 16 16.2833 16 16V8.4Z" fill="var(--fill-0, #232323)"/>
</g>
</svg>
