<svg preserveAspectRatio="none" width="100%" height="100%" overflow="visible" style="display: block;" viewBox="0 0 24 24" fill="none" xmlns="http://www.w3.org/2000/svg">
<g id="widgets">
<mask id="mask0_0_15" style="mask-type:alpha" maskUnits="userSpaceOnUse" x="0" y="0" width="24" height="24">
<rect id="Bounding box" width="24" height="24" fill="var(--fill-0, #D9D9D9)"/>
</mask>
<g mask="url(#mask0_0_15)">
<path id="widgets_2" d="M16.2417 12.3918L11.6082 7.75825C11.4972 7.65825 11.4181 7.54917 11.3707 7.431C11.3236 7.313 11.3 7.17967 11.3 7.031C11.3 6.8825 11.3236 6.74992 11.3707 6.63325C11.4181 6.51658 11.4972 6.40275 11.6082 6.29175L16.2417 1.65825C16.3417 1.55825 16.4508 1.48192 16.569 1.42925C16.687 1.37642 16.8203 1.35 16.969 1.35C17.1175 1.35 17.2501 1.37642 17.3667 1.42925C17.4834 1.48192 17.5973 1.55825 17.7083 1.65825L22.3417 6.29175C22.4417 6.40275 22.5181 6.51733 22.5708 6.6355C22.6236 6.75367 22.65 6.887 22.65 7.0355C22.65 7.184 22.6236 7.31658 22.5708 7.43325C22.5181 7.54992 22.4417 7.65825 22.3417 7.75825L17.7083 12.3918C17.5973 12.5028 17.4827 12.5819 17.3645 12.6293C17.2463 12.6764 17.113 12.7 16.9645 12.7C16.816 12.7 16.6834 12.6764 16.5667 12.6293C16.4501 12.5819 16.3417 12.5028 16.2417 12.3918ZM2.1 9.90825V3.39175C2.1 3.10558 2.20208 2.86042 2.40625 2.65625C2.61042 2.45208 2.86108 2.35 3.15825 2.35H9.675C9.96117 2.35 10.2063 2.45208 10.4105 2.65625C10.6147 2.86042 10.7167 3.10558 10.7167 3.39175V9.90825C10.7167 10.2056 10.6147 10.4563 10.4105 10.6605C10.2063 10.8647 9.96117 10.9667 9.675 10.9667H3.15825C2.86108 10.9667 2.61042 10.8647 2.40625 10.6605C2.20208 10.4563 2.1 10.2056 2.1 9.90825ZM13.0667 20.8417V14.3582C13.0667 14.0722 13.1688 13.8272 13.373 13.623C13.5772 13.4188 13.8278 13.3167 14.125 13.3167H20.6082C20.8944 13.3167 21.1396 13.4188 21.3437 13.623C21.5479 13.8272 21.65 14.0722 21.65 14.3582V20.8417C21.65 21.1389 21.5479 21.3896 21.3437 21.5938C21.1396 21.7979 20.8944 21.9 20.6082 21.9H14.125C13.8278 21.9 13.5772 21.7979 13.373 21.5938C13.1688 21.3896 13.0667 21.1389 13.0667 20.8417ZM2.1 20.8417V14.325C2.1 14.0388 2.20208 13.7937 2.40625 13.5895C2.61042 13.3853 2.86108 13.2832 3.15825 13.2832H9.675C9.96117 13.2832 10.2063 13.3853 10.4105 13.5895C10.6147 13.7937 10.7167 14.0388 10.7167 14.325V20.8417C10.7167 21.1389 10.6147 21.3896 10.4105 21.5938C10.2063 21.7979 9.96117 21.9 9.675 21.9H3.15825C2.86108 21.9 2.61042 21.7979 2.40625 21.5938C2.20208 21.3896 2.1 21.1389 2.1 20.8417Z" fill="var(--fill-0, #B9B3E9)"/>
</g>
</g>
</svg>
