<svg preserveAspectRatio="none" width="100%" height="100%" overflow="visible" style="display: block;" viewBox="0 0 24 24" fill="none" xmlns="http://www.w3.org/2000/svg">
<g id="lightbulb">
<mask id="mask0_0_6" style="mask-type:alpha" maskUnits="userSpaceOnUse" x="0" y="0" width="24" height="24">
<rect id="Bounding box" width="24" height="24" fill="var(--fill-0, #D9D9D9)"/>
</mask>
<g mask="url(#mask0_0_6)">
<path id="lightbulb_2" d="M10.4668 21.8502C10.0556 21.4391 9.86113 20.928 9.8833 20.317H14.1168C14.139 20.928 13.9445 21.4391 13.5333 21.8502C13.1223 22.2614 12.6112 22.467 12 22.467C11.3889 22.467 10.8778 22.2614 10.4668 21.8502ZM8.7583 19.2502C8.4583 19.2502 8.20697 19.1488 8.0043 18.946C7.80147 18.7433 7.70005 18.4947 7.70005 18.2002C7.70005 17.9057 7.80147 17.6572 8.0043 17.4545C8.20697 17.2517 8.4583 17.1502 8.7583 17.1502H15.2583C15.5473 17.1502 15.7931 17.2517 15.9958 17.4545C16.1986 17.6572 16.3 17.9057 16.3 18.2002C16.3 18.4947 16.1986 18.7433 15.9958 18.946C15.7931 19.1488 15.5473 19.2502 15.2583 19.2502H8.7583ZM7.9668 16.1002C6.74447 15.3557 5.7778 14.3849 5.0668 13.1877C4.35563 11.9906 4.00005 10.667 4.00005 9.21699C4.00005 7.03366 4.78755 5.15449 6.36255 3.57949C7.93755 2.00449 9.81672 1.21699 12 1.21699C14.1834 1.21699 16.0625 2.00449 17.6375 3.57949C19.2125 5.15449 20 7.03366 20 9.21699C20 10.667 19.6473 11.9906 18.9418 13.1877C18.2361 14.3849 17.2666 15.3557 16.0333 16.1002H7.9668Z" fill="var(--fill-0, #B9B3E9)"/>
</g>
</g>
</svg>
