<svg preserveAspectRatio="none" width="100%" height="100%" overflow="visible" style="display: block;" viewBox="0 0 56 56" fill="none" xmlns="http://www.w3.org/2000/svg">
<g id="person">
<mask id="mask0_0_10" style="mask-type:alpha" maskUnits="userSpaceOnUse" x="0" y="0" width="56" height="56">
<rect id="Bounding box" width="56" height="56" fill="var(--fill-0, #D9D9D9)"/>
</mask>
<g mask="url(#mask0_0_10)">
<path id="person_2" d="M20.9805 24.7136C19.1266 22.8598 18.1997 20.5199 18.1997 17.6938C18.1997 14.8681 19.1266 12.5284 20.9805 10.6745C22.8339 8.82071 25.1737 7.8938 27.9997 7.8938C30.8258 7.8938 33.1655 8.82071 35.019 10.6745C36.8728 12.5284 37.7997 14.8681 37.7997 17.6938C37.7997 20.5199 36.8728 22.8598 35.019 24.7136C33.1655 26.5671 30.8258 27.4938 27.9997 27.4938C25.1737 27.4938 22.8339 26.5671 20.9805 24.7136ZM8.16638 44.1188V41.9995C8.16638 40.4051 8.55197 39.0115 9.32313 37.8188C10.0947 36.6265 11.1091 35.7256 12.3664 35.1162C15.0108 33.8457 17.6228 32.8994 20.2023 32.2771C22.7822 31.6549 25.3813 31.3438 27.9997 31.3438C30.6181 31.3438 33.2106 31.6615 35.7773 32.297C38.344 32.932 40.9495 33.8718 43.594 35.1162C44.8773 35.7256 45.9047 36.6265 46.6763 37.8188C47.4475 39.0115 47.833 40.4051 47.833 41.9995V44.1188C47.833 45.506 47.3631 46.6695 46.4231 47.6095C45.4836 48.549 44.3202 49.0188 42.933 49.0188H13.0664C11.6792 49.0188 10.5159 48.549 9.5763 47.6095C8.63635 46.6695 8.16638 45.506 8.16638 44.1188Z" fill="var(--fill-0, #B9B3E9)"/>
</g>
</g>
</svg>
