<svg preserveAspectRatio="none" width="100%" height="100%" overflow="visible" style="display: block;" viewBox="0 0 56 56" fill="none" xmlns="http://www.w3.org/2000/svg">
<g id="person">
<mask id="mask0_0_7" style="mask-type:alpha" maskUnits="userSpaceOnUse" x="0" y="0" width="56" height="56">
<rect id="Bounding box" width="56" height="56" fill="var(--fill-0, #D9D9D9)"/>
</mask>
<g mask="url(#mask0_0_7)">
<path id="person_2" d="M27.9994 30.469C30.6894 30.469 33.3529 30.7952 35.9877 31.4475C38.6156 32.0977 41.2752 33.0581 43.9662 34.3245L43.9691 34.3254C45.3989 35.0044 46.5508 36.0145 47.4105 37.343L47.4115 37.344C48.2849 38.695 48.7083 40.2579 48.7084 41.9993V44.1184C48.7084 45.7264 48.1532 47.1159 47.0414 48.2278C45.9299 49.3393 44.5408 49.8938 42.933 49.8938H13.0668C11.4589 49.8938 10.0689 49.3393 8.9574 48.2278C7.84576 47.116 7.29138 45.7262 7.29138 44.1184V41.9993C7.29143 40.2578 7.71479 38.695 8.58826 37.344V37.343C9.44521 36.0188 10.5811 35.0087 11.9847 34.3284L11.9877 34.3274C14.6818 33.033 17.3522 32.0651 19.9974 31.427C22.6434 30.7889 25.3111 30.469 27.9994 30.469ZM27.9994 7.0188C31.0375 7.0188 33.6069 8.02431 35.6381 10.0559C37.6694 12.0873 38.6751 14.656 38.6752 17.6936C38.6752 20.7316 37.6694 23.3008 35.6381 25.3323C33.6069 27.3635 31.0375 28.3684 27.9994 28.3684C24.9615 28.3683 22.3928 27.3634 20.3617 25.3323C18.3302 23.3007 17.3246 20.7317 17.3246 17.6936C17.3246 14.6559 18.3303 12.0874 20.3617 10.0559L20.7484 9.68677C22.7153 7.90232 25.1512 7.01887 27.9994 7.0188Z" fill="var(--fill-0, #B9B3E9)" stroke="var(--stroke-0, #232323)" stroke-width="1.75"/>
</g>
</g>
</svg>
