<svg width="768" height="768" viewBox="0 0 768 768" fill="none" xmlns="http://www.w3.org/2000/svg">
<rect width="768" height="768" rx="170" fill="#B9B3E9"/>
<path d="M148 435C155 397 184 375 224 375H230C267 375 297 400 307 437L334 537C340 564 325 591 300 602L273 614C243 628 209 628 178 615L151 603C123 591 107 561 112 532L148 435Z" fill="#F3F3F3"/>
<path d="M316 286C316 272 328 261 344 261H347C362 261 375 272 375 286V287C375 298 384 308 396 312L423 320C433 323 440 332 440 342C440 352 433 360 422 363L399 369C390 371 383 378 381 387L371 423C368 435 357 443 345 443H340C327 443 316 433 314 420L307 389C305 380 307 371 312 362L323 340C334 320 340 298 340 275V271C340 257 351 246 365 246H369C383 246 394 257 394 271V274C394 282 398 289 404 293L417 303C421 306 424 311 424 317V318C424 326 417 333 408 333H401C391 333 382 339 379 348L369 378C365 393 351 403 336 403H332C315 403 301 390 301 374V355C301 335 306 315 316 297V286Z" fill="#F3F3F3"/>
<path d="M420 448C420 406 455 371 497 371H501C542 371 576 402 582 442L589 493C592 516 576 536 553 540L530 544C492 551 452 543 420 521V448Z" fill="#F3F3F3"/>
<path d="M551 438C557 411 575 387 600 372L633 351C646 343 662 341 677 345L681 346C695 349 707 360 709 375L711 392C714 408 726 421 742 425L745 426C756 429 764 438 765 449L768 515C771 569 763 623 744 674V675C736 697 716 713 693 715L610 724C581 727 553 711 542 684L518 626C502 588 501 545 514 507L551 438Z" fill="#F3F3F3"/>
<path d="M347 454C350 419 379 392 414 392H435C458 392 479 405 490 425L538 512C554 542 558 578 549 611L537 655C529 682 507 702 479 705L355 714C326 716 299 698 288 671L279 648C272 631 268 613 268 594V542C268 512 278 483 297 460L310 444C319 434 333 428 347 429V454Z" fill="#F3F3F3"/>
</svg>
