<svg preserveAspectRatio="none" width="100%" height="100%" overflow="visible" style="display: block;" viewBox="0 0 24 24" fill="none" xmlns="http://www.w3.org/2000/svg">
<g id="zoom_in_map">
<mask id="mask0_0_4" style="mask-type:alpha" maskUnits="userSpaceOnUse" x="0" y="0" width="24" height="24">
<rect id="Bounding box" width="24" height="24" fill="var(--fill-0, #D9D9D9)"/>
</mask>
<g mask="url(#mask0_0_4)">
<path id="zoom_in_map_2" d="M6.76675 18.7168L4.19175 21.2918C3.98608 21.4973 3.73883 21.5972 3.45 21.5917C3.16117 21.5861 2.91675 21.4833 2.71675 21.2833C2.51675 21.0833 2.41675 20.8361 2.41675 20.5418C2.41675 20.2473 2.5195 19.9972 2.725 19.7917L5.28325 17.2333H3.625C3.32783 17.2333 3.07717 17.1309 2.873 16.9263C2.66883 16.7216 2.56675 16.473 2.56675 16.1805C2.56675 15.888 2.66883 15.6403 2.873 15.4375C3.07717 15.2347 3.32783 15.1333 3.625 15.1333H7.825C8.11117 15.1333 8.35633 15.2353 8.5605 15.4395C8.76467 15.6437 8.86675 15.8888 8.86675 16.175V20.375C8.86675 20.6722 8.76433 20.9228 8.5595 21.127C8.35483 21.3312 8.10625 21.4333 7.81375 21.4333C7.52125 21.4333 7.27358 21.3312 7.07075 21.127C6.86808 20.9228 6.76675 20.6722 6.76675 20.375V18.7168ZM17.2333 18.7168V20.375C17.2333 20.6722 17.1309 20.9228 16.9263 21.127C16.7216 21.3312 16.473 21.4333 16.1805 21.4333C15.888 21.4333 15.6403 21.3312 15.4375 21.127C15.2347 20.9228 15.1333 20.6722 15.1333 20.375V16.175C15.1333 15.8888 15.2353 15.6437 15.4395 15.4395C15.6437 15.2353 15.8944 15.1333 16.1918 15.1333H20.3917C20.6777 15.1333 20.9228 15.2357 21.127 15.4405C21.3312 15.6452 21.4333 15.8938 21.4333 16.1863C21.4333 16.4788 21.3312 16.7264 21.127 16.9293C20.9228 17.1319 20.6777 17.2333 20.3917 17.2333H18.7168L21.3083 19.8083C21.5028 20.0139 21.6 20.2612 21.6 20.55C21.6 20.8388 21.5 21.0833 21.3 21.2833C21.1 21.4833 20.8528 21.5833 20.5583 21.5833C20.2639 21.5833 20.0195 21.4805 19.825 21.275L17.2333 18.7168ZM5.28325 6.76675L2.70825 4.175C2.50275 3.9805 2.40275 3.73608 2.40825 3.44175C2.41392 3.14725 2.51675 2.9 2.71675 2.7C2.91675 2.5 3.16392 2.4 3.45825 2.4C3.75275 2.4 4.00275 2.49725 4.20825 2.69175L6.76675 5.28325V3.60825C6.76675 3.32225 6.86908 3.07717 7.07375 2.873C7.27842 2.66883 7.527 2.56675 7.8195 2.56675C8.112 2.56675 8.35967 2.66883 8.5625 2.873C8.76533 3.07717 8.86675 3.32225 8.86675 3.60825V7.80825C8.86675 8.10558 8.76467 8.35633 8.5605 8.5605C8.35633 8.76467 8.11117 8.86675 7.825 8.86675H3.625C3.32783 8.86675 3.07717 8.76433 2.873 8.5595C2.66883 8.35483 2.56675 8.10625 2.56675 7.81375C2.56675 7.52125 2.66883 7.27358 2.873 7.07075C3.07717 6.86808 3.32783 6.76675 3.625 6.76675H5.28325ZM18.7168 6.76675H20.3917C20.6777 6.76675 20.9228 6.86908 21.127 7.07375C21.3312 7.27842 21.4333 7.527 21.4333 7.8195C21.4333 8.112 21.3312 8.35967 21.127 8.5625C20.9228 8.76533 20.6777 8.86675 20.3917 8.86675H16.1918C15.8944 8.86675 15.6437 8.76467 15.4395 8.5605C15.2353 8.35633 15.1333 8.10558 15.1333 7.80825V3.60825C15.1333 3.32225 15.2357 3.07717 15.4405 2.873C15.6452 2.66883 15.8938 2.56675 16.1863 2.56675C16.4788 2.56675 16.7264 2.66883 16.9292 2.873C17.1319 3.07717 17.2333 3.32225 17.2333 3.60825V5.28325L19.8418 2.675C20.0361 2.4805 20.2805 2.38325 20.575 2.38325C20.8695 2.38325 21.1168 2.48325 21.3168 2.68325C21.5168 2.88325 21.6167 3.1305 21.6167 3.425C21.6167 3.7195 21.5195 3.96392 21.325 4.15825L18.7168 6.76675Z" fill="var(--fill-0, #232323)"/>
</g>
</g>
</svg>
