<svg preserveAspectRatio="none" width="100%" height="100%" overflow="visible" style="display: block;" viewBox="0 0 24 24" fill="none" xmlns="http://www.w3.org/2000/svg">
<g id="close">
<mask id="mask0_0_13" style="mask-type:alpha" maskUnits="userSpaceOnUse" x="0" y="0" width="24" height="24">
<rect id="Bounding box" width="24" height="24" fill="var(--fill-0, #D9D9D9)"/>
</mask>
<g mask="url(#mask0_0_13)">
<path id="close_2" d="M12.025 13.4667L6.96675 18.5332C6.75558 18.7444 6.50558 18.8486 6.21675 18.8457C5.92775 18.8431 5.67775 18.7306 5.46675 18.5082C5.26108 18.2972 5.16242 18.0556 5.17075 17.7833C5.17908 17.5111 5.28608 17.2639 5.49175 17.0417L10.525 12L5.46675 6.90825C5.26108 6.69725 5.15825 6.45558 5.15825 6.18325C5.15825 5.91108 5.26108 5.66392 5.46675 5.44175C5.67775 5.23058 5.92775 5.12358 6.21675 5.12075C6.50558 5.11808 6.75558 5.22225 6.96675 5.43325L12.025 10.5L17.0332 5.43325C17.2444 5.22225 17.4944 5.11808 17.7832 5.12075C18.0722 5.12358 18.3222 5.23058 18.5332 5.44175C18.7389 5.66392 18.8376 5.91108 18.8292 6.18325C18.8209 6.45558 18.7195 6.69725 18.525 6.90825L13.4917 12L18.525 17.0417C18.7195 17.2472 18.8209 17.4902 18.8292 17.7707C18.8376 18.0514 18.7389 18.2972 18.5332 18.5082C18.3222 18.7306 18.0722 18.8431 17.7832 18.8457C17.4944 18.8486 17.2444 18.7444 17.0332 18.5332L12.025 13.4667Z" fill="var(--fill-0, #B9B3E9)"/>
</g>
</g>
</svg>
