<svg preserveAspectRatio="none" width="100%" height="100%" overflow="visible" style="display: block;" viewBox="0 0 24 24" fill="none" xmlns="http://www.w3.org/2000/svg">
<g id="deployed_code">
<mask id="mask0_0_7" style="mask-type:alpha" maskUnits="userSpaceOnUse" x="0" y="0" width="24" height="24">
<rect id="Bounding box" width="24" height="24" fill="var(--fill-0, #D9D9D9)"/>
</mask>
<g mask="url(#mask0_0_7)">
<path id="deployed_code_2" d="M10.9582 22.325L3.525 18.0417C3.18333 17.8481 2.9215 17.5894 2.7395 17.2657C2.55767 16.9422 2.46675 16.5953 2.46675 16.225V7.78325C2.46675 7.41292 2.55767 7.066 2.7395 6.7425C2.9215 6.41883 3.18333 6.16025 3.525 5.96675L10.9582 1.68325C11.2849 1.49442 11.6319 1.4 11.9992 1.4C12.3664 1.4 12.7194 1.49442 13.0583 1.68325L20.4667 5.96675C20.7972 6.16025 21.0562 6.41883 21.2437 6.7425C21.4312 7.066 21.525 7.41292 21.525 7.78325V16.225C21.525 16.5953 21.4312 16.9422 21.2437 17.2657C21.0562 17.5894 20.7972 17.8481 20.4667 18.0417L13.0583 22.325C12.7158 22.5138 12.3609 22.6082 11.9937 22.6082C11.6266 22.6082 11.2814 22.5138 10.9582 22.325ZM10.9667 12.6167V19.8832L12 20.4832L13.0583 19.875V12.6115L19.425 8.9V7.815L18.275 7.15825L12 10.8167L5.70825 7.15825L4.56675 7.80925V8.89175L10.9667 12.6167Z" fill="var(--fill-0, #232323)"/>
</g>
</g>
</svg>
