<svg preserveAspectRatio="none" width="100%" height="100%" overflow="visible" style="display: block;" viewBox="0 0 24 24" fill="none" xmlns="http://www.w3.org/2000/svg">
<g id="swords">
<mask id="mask0_0_10" style="mask-type:alpha" maskUnits="userSpaceOnUse" x="0" y="0" width="24" height="24">
<rect id="Bounding box" width="24" height="24" fill="var(--fill-0, #D9D9D9)"/>
</mask>
<g mask="url(#mask0_0_10)">
<path id="swords_2" d="M19.125 22L16.25 19.1083L14.6333 20.725C14.3611 20.9972 14.0861 21.0555 13.8083 20.9C13.5306 20.7445 13.2945 20.5639 13.1 20.3583C12.6833 19.9528 12.475 19.4639 12.475 18.8918C12.475 18.3194 12.6833 17.8249 13.1 17.4082L17.525 12.9833C17.9305 12.5778 18.4194 12.375 18.9918 12.375C19.5639 12.375 20.0583 12.5778 20.475 12.9833C20.6695 13.1889 20.8445 13.4306 21 13.7082C21.1555 13.9861 21.1028 14.2556 20.8418 14.5168L19.225 16.1332L22.0833 19.0333C22.2944 19.2444 22.4 19.4889 22.4 19.7668C22.4 20.0444 22.2944 20.2888 22.0833 20.5L20.6 22C20.3888 22.2112 20.1403 22.3168 19.8543 22.3168C19.5681 22.3168 19.325 22.2112 19.125 22ZM21.9083 6.29175L10.8332 17.3668L11.1168 17.6667C11.5556 18.2167 11.6723 18.7584 11.4668 19.2918C11.2611 19.8251 10.9472 20.3028 10.525 20.725C10.3638 20.8972 10.1694 20.9833 9.94175 20.9833C9.71392 20.9833 9.51942 20.8972 9.35825 20.725L7.74175 19.1083L4.85825 22.0083C4.64725 22.2194 4.40008 22.325 4.11675 22.325C3.83342 22.325 3.59175 22.2194 3.39175 22.0083L1.86675 20.5C1.65558 20.2888 1.55 20.0444 1.55 19.7668C1.55 19.4889 1.65558 19.2444 1.86675 19.0333L4.76675 16.1332L3.15 14.5168C2.98883 14.3556 2.90825 14.1639 2.90825 13.9418C2.90825 13.7194 2.98883 13.5222 3.15 13.35C3.57217 12.9278 4.05408 12.6168 4.59575 12.4168C5.13742 12.2168 5.68325 12.3389 6.23325 12.7833L6.53325 13.0668L17.3 2.3C17.4945 2.1055 17.7209 1.95275 17.9793 1.84175C18.2376 1.73058 18.5084 1.675 18.7918 1.675H21.1668C21.4556 1.675 21.7042 1.77917 21.9125 1.9875C22.1208 2.19583 22.225 2.44442 22.225 2.73325V5.55825C22.225 5.69725 22.1973 5.82925 22.1418 5.95425C22.0861 6.07925 22.0083 6.19175 21.9083 6.29175ZM5.91675 10.1L2.41675 6.6C2.21108 6.4055 2.0555 6.17908 1.95 5.92075C1.8445 5.66242 1.79175 5.39158 1.79175 5.10825V2.73325C1.79175 2.44442 1.89308 2.19583 2.09575 1.9875C2.29858 1.77917 2.54442 1.675 2.83325 1.675H5.20825C5.49158 1.675 5.76242 1.73058 6.02075 1.84175C6.27908 1.95275 6.51108 2.1055 6.71675 2.3L10.2168 5.8C10.4168 6.01117 10.5168 6.25558 10.5168 6.53325C10.5168 6.81108 10.4168 7.05558 10.2168 7.26675L7.36675 10.1C7.15558 10.3112 6.91108 10.4167 6.63325 10.4167C6.35558 10.4167 6.11675 10.3112 5.91675 10.1Z" fill="var(--fill-0, #232323)"/>
</g>
</g>
</svg>
