<svg preserveAspectRatio="none" width="100%" height="100%" overflow="visible" style="display: block;" viewBox="0 0 24 24" fill="none" xmlns="http://www.w3.org/2000/svg">
<g id="deployed_code_update">
<mask id="mask0_0_7" style="mask-type:alpha" maskUnits="userSpaceOnUse" x="0" y="0" width="24" height="24">
<rect id="Bounding box" width="24" height="24" fill="var(--fill-0, #D9D9D9)"/>
</mask>
<g mask="url(#mask0_0_7)">
<path id="deployed_code_update_2" d="M18.475 20.15L17.075 18.7583C16.9638 18.6583 16.8388 18.6083 16.7 18.6083C16.5612 18.6083 16.4417 18.6583 16.3417 18.7583C16.2306 18.8694 16.175 18.9973 16.175 19.1418C16.175 19.2861 16.2306 19.4083 16.3417 19.5083L18.275 21.4583C18.375 21.5694 18.4833 21.6528 18.6 21.7083C18.7167 21.7639 18.85 21.7918 19 21.7918C19.15 21.7918 19.2875 21.7639 19.4125 21.7083C19.5375 21.6528 19.65 21.5694 19.75 21.4583L21.7 19.5083C21.8112 19.4083 21.8626 19.2861 21.8542 19.1418C21.8459 18.9973 21.7917 18.8694 21.6917 18.7583C21.5806 18.6583 21.4527 18.6083 21.3082 18.6083C21.1639 18.6083 21.0417 18.6583 20.9417 18.7583L19.55 20.15V16.65C19.55 16.5 19.4972 16.3722 19.3917 16.2667C19.2861 16.1611 19.1611 16.1083 19.0167 16.1083C18.8722 16.1083 18.7458 16.1611 18.6375 16.2667C18.5292 16.3722 18.475 16.5 18.475 16.65V20.15ZM12.5375 12.8168C12.718 12.7778 12.8916 12.7082 13.0583 12.6082L18.4167 9.46675C18.6556 9.31675 18.8152 9.10558 18.8957 8.83325C18.9764 8.56108 18.9417 8.30275 18.7917 8.05825C18.6417 7.81392 18.4292 7.65142 18.1542 7.57075C17.8792 7.49025 17.6223 7.525 17.3833 7.675L12 10.8167L6.61675 7.675C6.36675 7.53617 6.10425 7.50425 5.82925 7.57925C5.55425 7.65425 5.34175 7.81117 5.19175 8.05C5.05275 8.3 5.01658 8.56392 5.08325 8.84175C5.14992 9.11942 5.30825 9.33325 5.55825 9.48325L10.9332 12.6082C11.1056 12.7082 11.282 12.7778 11.4625 12.8168C11.643 12.8556 11.8222 12.875 12 12.875C12.1778 12.875 12.357 12.8556 12.5375 12.8168ZM2.46675 16.225V7.78325C2.46675 7.41108 2.55842 7.0625 2.74175 6.7375C2.92508 6.4125 3.18617 6.15558 3.525 5.96675L10.9582 1.68325C11.1306 1.58325 11.3028 1.51383 11.475 1.475C11.6472 1.43617 11.8222 1.41675 12 1.41675C12.1778 1.41675 12.357 1.43617 12.5375 1.475C12.718 1.51383 12.8916 1.58325 13.0583 1.68325L20.4667 5.96675C20.7944 6.15558 21.0527 6.4125 21.2417 6.7375C21.4306 7.0625 21.525 7.41108 21.525 7.78325V11.95C21.525 12.2722 21.3958 12.5249 21.1375 12.7083C20.8792 12.8916 20.5944 12.9388 20.2832 12.85C20.0389 12.7833 19.7973 12.7361 19.5583 12.7083C19.3194 12.6806 19.0777 12.6668 18.8332 12.6668C17.0556 12.6668 15.5278 13.3028 14.25 14.575C12.9722 15.8472 12.3332 17.3833 12.3332 19.1833C12.3332 19.6389 12.3707 20.0501 12.4457 20.4168C12.5207 20.7834 12.6249 21.1389 12.7582 21.4833C12.9194 21.8944 12.8347 22.2403 12.5042 22.5208C12.1736 22.8014 11.8361 22.8389 11.4917 22.6333L3.525 18.0418C3.18617 17.8528 2.92508 17.5958 2.74175 17.2708C2.55842 16.9458 2.46675 16.5972 2.46675 16.225ZM15.4208 22.5875C14.4736 21.6458 14 20.5111 14 19.1833C14 17.8444 14.4736 16.7014 15.4208 15.7543C16.3681 14.8069 17.5056 14.3333 18.8332 14.3333C20.1611 14.3333 21.2986 14.8069 22.2458 15.7543C23.1931 16.7014 23.6667 17.8444 23.6667 19.1833C23.6667 20.5111 23.1931 21.6458 22.2458 22.5875C21.2986 23.5292 20.1611 24 18.8332 24C17.5056 24 16.3681 23.5292 15.4208 22.5875Z" fill="var(--fill-0, #B9B3E9)"/>
</g>
</g>
</svg>
