<svg preserveAspectRatio="none" width="100%" height="100%" overflow="visible" style="display: block;" viewBox="0 0 24 24" fill="none" xmlns="http://www.w3.org/2000/svg">
<g id="shopping_bag">
<mask id="mask0_0_4" style="mask-type:alpha" maskUnits="userSpaceOnUse" x="0" y="0" width="24" height="24">
<rect id="Bounding box" width="24" height="24" fill="var(--fill-0, #D9D9D9)"/>
</mask>
<g mask="url(#mask0_0_4)">
<path id="shopping_bag_2" d="M5.56675 22.5333C5.00458 22.5333 4.514 22.3238 4.095 21.905C3.67617 21.486 3.46675 20.9954 3.46675 20.4333V7.66675C3.46675 7.10458 3.67617 6.614 4.095 6.195C4.514 5.77617 5.00458 5.56675 5.56675 5.56675H7.95825V5.4C7.95825 4.28883 8.35125 3.3555 9.13725 2.6C9.92308 1.8445 10.8773 1.46675 12 1.46675C13.1227 1.46675 14.0797 1.8445 14.8712 2.6C15.6626 3.3555 16.0583 4.28883 16.0583 5.4V5.56675H18.4333C18.9954 5.56675 19.486 5.77617 19.905 6.195C20.3238 6.614 20.5333 7.10458 20.5333 7.66675V20.4333C20.5333 20.9954 20.3238 21.486 19.905 21.905C19.486 22.3238 18.9954 22.5333 18.4333 22.5333H5.56675ZM10.0582 5.56675H13.9583V5.4C13.9583 4.87783 13.7666 4.44175 13.3833 4.09175C12.9999 3.74175 12.5388 3.56675 12 3.56675C11.4612 3.56675 11.0028 3.74175 10.625 4.09175C10.2472 4.44175 10.0582 4.87783 10.0582 5.4V5.56675ZM15.7458 10.3625C15.9541 10.1597 16.0583 9.90825 16.0583 9.60825V7.66675H13.9583V9.60825C13.9583 9.90825 14.0597 10.1597 14.2625 10.3625C14.4653 10.5653 14.7112 10.6667 15 10.6667C15.2888 10.6667 15.5374 10.5653 15.7458 10.3625ZM9.74575 10.3625C9.95408 10.1597 10.0582 9.90825 10.0582 9.60825V7.66675H7.95825V9.60825C7.95825 9.90825 8.05967 10.1597 8.2625 10.3625C8.46533 10.5653 8.71117 10.6667 9 10.6667C9.28883 10.6667 9.53742 10.5653 9.74575 10.3625Z" fill="var(--fill-0, #232323)"/>
</g>
</g>
</svg>
