<svg preserveAspectRatio="none" width="100%" height="100%" overflow="visible" style="display: block;" viewBox="0 0 24 24" fill="none" xmlns="http://www.w3.org/2000/svg">
<g id="person">
<mask id="mask0_0_13" style="mask-type:alpha" maskUnits="userSpaceOnUse" x="0" y="0" width="24" height="24">
<rect id="Bounding box" width="24" height="24" fill="var(--fill-0, #D9D9D9)"/>
</mask>
<g mask="url(#mask0_0_13)">
<path id="person_2" d="M8.99175 10.5917C8.19725 9.79725 7.8 8.79442 7.8 7.58325C7.8 6.37225 8.19725 5.3695 8.99175 4.575C9.78608 3.7805 10.7888 3.38325 12 3.38325C13.2112 3.38325 14.2139 3.7805 15.0082 4.575C15.8027 5.3695 16.2 6.37225 16.2 7.58325C16.2 8.79442 15.8027 9.79725 15.0082 10.5917C14.2139 11.3861 13.2112 11.7832 12 11.7832C10.7888 11.7832 9.78608 11.3861 8.99175 10.5917ZM3.5 18.9083V18C3.5 17.3167 3.66525 16.7194 3.99575 16.2083C4.32642 15.6973 4.76117 15.3112 5.3 15.05C6.43333 14.5055 7.55275 14.0999 8.65825 13.8333C9.76392 13.5666 10.8778 13.4333 12 13.4333C13.1222 13.4333 14.2332 13.5694 15.3332 13.8418C16.4332 14.1139 17.5499 14.5167 18.6832 15.05C19.2332 15.3112 19.6736 15.6973 20.0042 16.2083C20.3347 16.7194 20.5 17.3167 20.5 18V18.9083C20.5 19.5028 20.2986 20.0014 19.8957 20.4042C19.4931 20.8069 18.9945 21.0083 18.4 21.0083H5.6C5.0055 21.0083 4.50692 20.8069 4.10425 20.4042C3.70142 20.0014 3.5 19.5028 3.5 18.9083Z" fill="var(--fill-0, #B9B3E9)"/>
</g>
</g>
</svg>
