<svg preserveAspectRatio="none" width="100%" height="100%" overflow="visible" style="display: block;" viewBox="0 0 24 24" fill="none" xmlns="http://www.w3.org/2000/svg">
<g id="content_copy">
<mask id="mask0_0_7" style="mask-type:alpha" maskUnits="userSpaceOnUse" x="0" y="0" width="24" height="24">
<rect id="Bounding box" width="24" height="24" fill="var(--fill-0, #D9D9D9)"/>
</mask>
<g mask="url(#mask0_0_7)">
<path id="content_copy_2" d="M8.15825 19.1668C7.58908 19.1668 7.09683 18.9573 6.6815 18.5383C6.266 18.1193 6.05825 17.6288 6.05825 17.0668V3.6C6.05825 3.03783 6.266 2.54733 6.6815 2.1285C7.09683 1.7095 7.58908 1.5 8.15825 1.5H18.625C19.187 1.5 19.6775 1.7095 20.0965 2.1285C20.5155 2.54733 20.725 3.03783 20.725 3.6V17.0668C20.725 17.6288 20.5155 18.1193 20.0965 18.5383C19.6775 18.9573 19.187 19.1668 18.625 19.1668H8.15825ZM4.39175 22.9333C3.82258 22.9333 3.33025 22.7238 2.91475 22.305C2.49942 21.886 2.29175 21.3954 2.29175 20.8333V6.30825C2.29175 6.01908 2.393 5.77317 2.5955 5.5705C2.79817 5.368 3.044 5.26675 3.333 5.26675C3.62217 5.26675 3.87092 5.368 4.07925 5.5705C4.28758 5.77317 4.39175 6.01908 4.39175 6.30825V20.8333H15.9C16.1938 20.8333 16.4437 20.9347 16.6495 21.1375C16.8553 21.3403 16.9583 21.5879 16.9583 21.8803C16.9583 22.1726 16.8553 22.4212 16.6495 22.626C16.4437 22.8308 16.1938 22.9333 15.9 22.9333H4.39175Z" fill="var(--fill-0, #B9B3E9)"/>
</g>
</g>
</svg>
