<svg preserveAspectRatio="none" width="100%" height="100%" overflow="visible" style="display: block;" viewBox="0 0 24 24" fill="none" xmlns="http://www.w3.org/2000/svg">
<g id="group">
<mask id="mask0_0_4" style="mask-type:alpha" maskUnits="userSpaceOnUse" x="0" y="0" width="24" height="24">
<rect id="Bounding box" width="24" height="24" fill="var(--fill-0, #D9D9D9)"/>
</mask>
<g mask="url(#mask0_0_4)">
<path id="group_2" d="M-0.00825036 17.9977C-0.00825036 17.3371 0.148666 16.7459 0.4625 16.2242C0.776333 15.7026 1.21967 15.3111 1.7925 15.0497C2.992 14.4944 4.13033 14.0862 5.2075 13.825C6.28483 13.5638 7.38233 13.4332 8.5 13.4332C9.6215 13.4332 10.7157 13.5638 11.7828 13.825C12.8498 14.0862 13.9833 14.4945 15.1833 15.05C15.7464 15.3077 16.19 15.6977 16.514 16.2202C16.838 16.7427 17 17.3348 17 17.9965V18.9082C17 19.5027 16.7986 20.0014 16.3958 20.4042C15.9931 20.8069 15.4945 21.0082 14.9 21.0082H2.09175C1.49725 21.0082 0.998583 20.8069 0.59575 20.4042C0.193083 20.0014 -0.00825036 19.5027 -0.00825036 18.9082V17.9977ZM18.075 21.0082C18.2472 20.6916 18.3888 20.3583 18.5 20.0083C18.6112 19.6582 18.6668 19.2916 18.6668 18.9082V18.0675C18.6668 17.1447 18.4376 16.2722 17.9793 15.45C17.5209 14.6278 16.7778 13.9501 15.75 13.4167C17 13.5334 18.1667 13.7222 19.25 13.9832C20.3333 14.2444 21.2583 14.5777 22.025 14.9832C22.6638 15.3444 23.1569 15.7736 23.5043 16.2707C23.8514 16.7681 24.025 17.3001 24.025 17.8667V18.9082C24.025 19.5027 23.8208 20.0014 23.4125 20.4042C23.0042 20.8069 22.5075 21.0082 21.9225 21.0082H18.075ZM5.40825 10.6417C4.59725 9.83058 4.19175 8.80583 4.19175 7.5675C4.19175 6.32917 4.59725 5.30142 5.40825 4.48425C6.21942 3.66692 7.24417 3.25825 8.4825 3.25825C9.72083 3.25825 10.7486 3.66692 11.5658 4.48425C12.3831 5.30142 12.7918 6.32917 12.7918 7.5675C12.7918 8.80583 12.3831 9.83058 11.5658 10.6417C10.7486 11.4527 9.72083 11.8582 8.4825 11.8582C7.24417 11.8582 6.21942 11.4527 5.40825 10.6417ZM18.0103 10.6417C17.1951 11.4527 16.1697 11.8582 14.934 11.8582C14.6947 11.8582 14.4056 11.8374 14.0668 11.7957C13.7278 11.7541 13.4444 11.6916 13.2168 11.6082C13.6556 11.0816 13.9848 10.4747 14.2043 9.7875C14.4236 9.10033 14.5333 8.35892 14.5333 7.56325C14.5333 6.76758 14.4236 6.03733 14.2043 5.3725C13.9848 4.7075 13.6556 4.08608 13.2168 3.50825C13.4806 3.42775 13.7667 3.366 14.075 3.323C14.3833 3.27983 14.6694 3.25825 14.9333 3.25825C16.1691 3.25825 17.1948 3.66692 18.0103 4.48425C18.8256 5.30142 19.2333 6.32917 19.2333 7.5675C19.2333 8.80583 18.8256 9.83058 18.0103 10.6417Z" fill="var(--fill-0, #232323)"/>
</g>
</g>
</svg>
