<svg preserveAspectRatio="none" width="100%" height="100%" overflow="visible" style="display: block;" viewBox="0 0 24 24" fill="none" xmlns="http://www.w3.org/2000/svg">
<g id="play_circle">
<mask id="mask0_0_10" style="mask-type:alpha" maskUnits="userSpaceOnUse" x="0" y="0" width="24" height="24">
<rect id="Bounding box" width="24" height="24" fill="var(--fill-0, #D9D9D9)"/>
</mask>
<g mask="url(#mask0_0_10)">
<path id="play_circle_2" d="M10.5418 15.9918L15.7333 12.6582C15.9666 12.5052 16.0833 12.2864 16.0833 12.0018C16.0833 11.7173 15.9666 11.4973 15.7333 11.3418L10.5418 7.99175C10.2751 7.81942 10.0043 7.81408 9.72925 7.97575C9.45425 8.13725 9.31675 8.37033 9.31675 8.675V15.325C9.31675 15.6297 9.45425 15.8628 9.72925 16.0243C10.0043 16.1859 10.2751 16.1751 10.5418 15.9918ZM11.9923 22.5333C10.5479 22.5333 9.18542 22.2553 7.90475 21.6995C6.62408 21.1437 5.50883 20.3908 4.559 19.441C3.60917 18.4912 2.85633 17.3753 2.3005 16.0933C1.74467 14.8111 1.46675 13.4467 1.46675 12C1.46675 10.542 1.74517 9.17183 2.302 7.8895C2.85883 6.60717 3.614 5.48917 4.5675 4.5355C5.521 3.58167 6.63658 2.83175 7.91425 2.28575C9.19175 1.73975 10.5512 1.46675 11.9925 1.46675C13.4512 1.46675 14.8233 1.73975 16.109 2.28575C17.3947 2.83175 18.5132 3.58175 19.4645 4.53575C20.416 5.48975 21.1653 6.60883 21.7125 7.893C22.2597 9.17733 22.5333 10.5496 22.5333 12.0098C22.5333 13.4588 22.2603 14.8199 21.7143 16.0933C21.1683 17.3664 20.4183 18.4796 19.4645 19.4328C18.5108 20.3861 17.392 21.1412 16.108 21.698C14.824 22.2548 13.4521 22.5333 11.9923 22.5333Z" fill="var(--fill-0, #232323)"/>
</g>
</g>
</svg>
